<svg width="102" height="64" viewBox="0 0 102 64" fill="none" xmlns="http://www.w3.org/2000/svg">
<path d="M40.0488 60H38.4492L34.6621 55.5156C34.5208 55.347 34.4342 55.2331 34.4023 55.1738H34.375V60H33.2266V50.1973H34.375V54.8047H34.4023C34.4661 54.7044 34.5527 54.5928 34.6621 54.4697L38.3262 50.1973H39.7549L35.5508 54.9004L40.0488 60ZM46.208 60H45.0869V58.9062H45.0596C44.5719 59.7448 43.8542 60.1641 42.9062 60.1641C42.209 60.1641 41.6621 59.9795 41.2656 59.6104C40.8737 59.2412 40.6777 58.7513 40.6777 58.1406C40.6777 56.8327 41.4479 56.0716 42.9883 55.8574L45.0869 55.5635C45.0869 54.374 44.6061 53.7793 43.6445 53.7793C42.8014 53.7793 42.0404 54.0664 41.3613 54.6406V53.4922C42.0495 53.0547 42.8424 52.8359 43.7402 52.8359C45.3854 52.8359 46.208 53.7064 46.208 55.4473V60ZM45.0869 56.459L43.3984 56.6914C42.8789 56.7643 42.487 56.8942 42.2227 57.0811C41.9583 57.2633 41.8262 57.5892 41.8262 58.0586C41.8262 58.4004 41.9469 58.6807 42.1885 58.8994C42.4346 59.1136 42.7604 59.2207 43.166 59.2207C43.722 59.2207 44.18 59.027 44.54 58.6396C44.9046 58.2477 45.0869 57.7533 45.0869 57.1562V56.459ZM53.0918 59.6787C52.554 60.0023 51.916 60.1641 51.1777 60.1641C50.1797 60.1641 49.373 59.8405 48.7578 59.1934C48.1471 58.5417 47.8418 57.6986 47.8418 56.6641C47.8418 55.5111 48.1722 54.5859 48.833 53.8887C49.4938 53.1868 50.3757 52.8359 51.4785 52.8359C52.0938 52.8359 52.6361 52.9499 53.1055 53.1777V54.3262C52.5859 53.9616 52.0299 53.7793 51.4375 53.7793C50.722 53.7793 50.1341 54.0368 49.6738 54.5518C49.2181 55.0622 48.9902 55.7344 48.9902 56.5684C48.9902 57.3887 49.2044 58.0358 49.6328 58.5098C50.0658 58.9837 50.6445 59.2207 51.3691 59.2207C51.9798 59.2207 52.554 59.0179 53.0918 58.6123V59.6787ZM59.5586 59.6787C59.0208 60.0023 58.3828 60.1641 57.6445 60.1641C56.6465 60.1641 55.8398 59.8405 55.2246 59.1934C54.6139 58.5417 54.3086 57.6986 54.3086 56.6641C54.3086 55.5111 54.639 54.5859 55.2998 53.8887C55.9606 53.1868 56.8424 52.8359 57.9453 52.8359C58.5605 52.8359 59.1029 52.9499 59.5723 53.1777V54.3262C59.0527 53.9616 58.4967 53.7793 57.9043 53.7793C57.1888 53.7793 56.6009 54.0368 56.1406 54.5518C55.6849 55.0622 55.457 55.7344 55.457 56.5684C55.457 57.3887 55.6712 58.0358 56.0996 58.5098C56.5326 58.9837 57.1113 59.2207 57.8359 59.2207C58.4466 59.2207 59.0208 59.0179 59.5586 58.6123V59.6787ZM68.9102 60H67.8027V53H68.9102V60ZM61.2539 60V53H62.375V55.6865H64.2617C64.9772 55.6865 65.5446 55.8734 65.9639 56.2471C66.3877 56.6208 66.5996 57.1426 66.5996 57.8125C66.5996 58.487 66.3877 59.0202 65.9639 59.4121C65.54 59.804 65.0046 60 64.3574 60H61.2539ZM62.375 56.6504V59.043H64.0566C64.9863 59.043 65.4512 58.6328 65.4512 57.8125C65.4512 57.0378 64.9818 56.6504 64.043 56.6504H62.375Z" fill="white"/>
<path fill-rule="evenodd" clip-rule="evenodd" d="M73 7H49V2L46.5 0L44 2L41.5 0L39 2.1L36.6 0L34 1.9V7H29C27.9 7 27 7.9 27 9V36C27 37.1 27.9 38 29 38H73C74.1 38 75 37.1 75 36V9C75 7.9 74.1 7 73 7ZM73 36H29V9H34V16H49V9H73V36ZM34 21H36V23H34V21ZM38 21H40V23H38V21ZM42 21H44V23H42V21ZM46 21H48V23H46V21ZM34 25H36V27H34V25ZM38 25H40V27H38V25ZM42 25H44V27H42V25ZM46 25H48V27H46V25ZM34 29H36V31H34V29ZM38 29H40V31H38V29ZM42 29H44V31H42V29ZM46 29H48V31H46V29ZM68 16H54V13H68V16Z" fill="white"/>
</svg>
