<svg width="102" height="96" viewBox="0 0 102 96" fill="none" xmlns="http://www.w3.org/2000/svg">
<path d="M22.583 72.5898C21.8584 72.9727 20.9561 73.1641 19.876 73.1641C18.4814 73.1641 17.3649 72.7152 16.5264 71.8174C15.6878 70.9196 15.2686 69.7415 15.2686 68.2832C15.2686 66.7155 15.7402 65.4486 16.6836 64.4824C17.627 63.5163 18.8232 63.0332 20.2725 63.0332C21.2021 63.0332 21.9723 63.1676 22.583 63.4365V64.6602C21.8812 64.2682 21.1064 64.0723 20.2588 64.0723C19.1331 64.0723 18.2194 64.4482 17.5176 65.2002C16.8203 65.9521 16.4717 66.957 16.4717 68.2148C16.4717 69.4089 16.7975 70.3613 17.4492 71.0723C18.1055 71.7786 18.9645 72.1318 20.0264 72.1318C21.0107 72.1318 21.863 71.9131 22.583 71.4756V72.5898ZM27.3545 73.1641C26.32 73.1641 25.4928 72.8382 24.873 72.1865C24.2578 71.5303 23.9502 70.6621 23.9502 69.582C23.9502 68.4062 24.2715 67.488 24.9141 66.8271C25.5566 66.1663 26.4248 65.8359 27.5186 65.8359C28.5622 65.8359 29.3757 66.1572 29.959 66.7998C30.5469 67.4424 30.8408 68.3333 30.8408 69.4727C30.8408 70.5892 30.5241 71.4847 29.8906 72.1592C29.2617 72.8291 28.4163 73.1641 27.3545 73.1641ZM27.4365 66.7793C26.7165 66.7793 26.1468 67.0254 25.7275 67.5176C25.3083 68.0052 25.0986 68.6797 25.0986 69.541C25.0986 70.3704 25.3105 71.0244 25.7344 71.5029C26.1582 71.9814 26.7256 72.2207 27.4365 72.2207C28.1611 72.2207 28.7171 71.986 29.1045 71.5166C29.4964 71.0472 29.6924 70.3796 29.6924 69.5137C29.6924 68.6387 29.4964 67.9642 29.1045 67.4902C28.7171 67.0163 28.1611 66.7793 27.4365 66.7793ZM37.0273 66.957H34.9287V73H33.8076V66.957H31.7021V66H37.0273V66.957ZM39.5225 71.9883H39.4951V76.2197H38.374V66H39.4951V67.2305H39.5225C40.0739 66.3008 40.8805 65.8359 41.9424 65.8359C42.8447 65.8359 43.5488 66.1504 44.0547 66.7793C44.5605 67.4036 44.8135 68.2422 44.8135 69.2949C44.8135 70.4661 44.5286 71.4049 43.959 72.1113C43.3893 72.8132 42.61 73.1641 41.6211 73.1641C40.7142 73.1641 40.0146 72.7721 39.5225 71.9883ZM39.4951 69.165V70.1426C39.4951 70.7214 39.682 71.2135 40.0557 71.6191C40.4339 72.0202 40.9124 72.2207 41.4912 72.2207C42.1702 72.2207 42.7012 71.9609 43.084 71.4414C43.4714 70.9219 43.665 70.1995 43.665 69.2744C43.665 68.4951 43.485 67.8844 43.125 67.4424C42.765 67.0003 42.2773 66.7793 41.6621 66.7793C41.0104 66.7793 40.4863 67.0072 40.0898 67.4629C39.6934 67.9141 39.4951 68.4814 39.4951 69.165ZM52.1758 66L48.9561 74.1211C48.3818 75.5703 47.5752 76.2949 46.5361 76.2949C46.2445 76.2949 46.0007 76.2653 45.8047 76.2061V75.2012C46.0462 75.2832 46.2673 75.3242 46.4678 75.3242C47.0329 75.3242 47.4567 74.987 47.7393 74.3125L48.2998 72.9863L45.5654 66H46.8096L48.7031 71.3867C48.7259 71.4551 48.7738 71.6328 48.8467 71.9199H48.8877C48.9105 71.8105 48.9561 71.6374 49.0244 71.4004L51.0137 66H52.1758ZM59.4902 75.5498H58.54V73H53.3311V75.5498H52.374V72.0498H52.9961C54.1901 70.3271 54.7962 68.3105 54.8145 66H58.4512V72.0498H59.4902V75.5498ZM57.3301 72.0498V66.9502H55.7783C55.6553 68.8369 55.1243 70.5368 54.1855 72.0498H57.3301ZM66.8525 73H65.7314V69.8213H62.1631V73H61.042V66H62.1631V68.8711H65.7314V66H66.8525V73ZM74.9873 73H73.9756V67.415C73.8753 67.611 73.7227 67.8867 73.5176 68.2422L70.2842 73H69.1221V66H70.1475V71.5166C70.2021 71.3844 70.3206 71.1589 70.5029 70.8398L73.8252 66H74.9873V73ZM83.0674 73H81.4951L78.4053 69.6367H78.3779V73H77.2568V66H78.3779V69.2061H78.4053L81.3447 66H82.8145L79.5674 69.377L83.0674 73ZM90.0811 73H89.0693V67.415C88.9691 67.611 88.8164 67.8867 88.6113 68.2422L85.3779 73H84.2158V66H85.2412V71.5166C85.2959 71.3844 85.4144 71.1589 85.5967 70.8398L88.9189 66H90.0811V73ZM25.2285 92H24.2168V86.415C24.1165 86.611 23.9639 86.8867 23.7588 87.2422L20.5254 92H19.3633V85H20.3887V90.5166C20.4434 90.3844 20.5618 90.1589 20.7441 89.8398L24.0664 85H25.2285V92ZM37.1504 92H35.5781L32.4883 88.6367H32.4609V92H31.3398V85H32.4609V88.2061H32.4883L35.4277 85H36.8975L33.6504 88.377L37.1504 92ZM43.4053 92H42.291V85.9502H40.6641C40.4772 88.2152 40.1559 89.8057 39.7002 90.7217C39.249 91.6377 38.6406 92.0957 37.875 92.0957C37.6426 92.0957 37.4421 92.0638 37.2734 92V91.0361C37.4329 91.1182 37.6061 91.1592 37.793 91.1592C38.7956 91.1592 39.4404 89.1061 39.7275 85H43.4053V92ZM51.5469 92H50.5352V86.415C50.4349 86.611 50.2822 86.8867 50.0771 87.2422L46.8438 92H45.6816V85H46.707V90.5166C46.7617 90.3844 46.8802 90.1589 47.0625 89.8398L50.3848 85H51.5469V92ZM59.4424 88.7803H54.5C54.5182 89.5596 54.7279 90.1611 55.1289 90.585C55.5299 91.0088 56.0814 91.2207 56.7832 91.2207C57.5716 91.2207 58.2962 90.9609 58.957 90.4414V91.4941C58.3418 91.9408 57.5283 92.1641 56.5166 92.1641C55.5277 92.1641 54.7507 91.8473 54.1855 91.2139C53.6204 90.5758 53.3379 89.6803 53.3379 88.5273C53.3379 87.4382 53.6455 86.5518 54.2607 85.8682C54.8805 85.18 55.6484 84.8359 56.5645 84.8359C57.4805 84.8359 58.1891 85.1322 58.6904 85.7246C59.1917 86.3171 59.4424 87.1396 59.4424 88.1924V88.7803ZM58.2939 87.8301C58.2894 87.1829 58.1322 86.6794 57.8223 86.3193C57.5169 85.9593 57.0908 85.7793 56.5439 85.7793C56.0153 85.7793 55.5664 85.9684 55.1973 86.3467C54.8281 86.7249 54.6003 87.2194 54.5137 87.8301H58.2939ZM66.9551 92H65.834V88.8213H62.2656V92H61.1445V85H62.2656V87.8711H65.834V85H66.9551V92ZM73.6201 85.957H71.5215V92H70.4004V85.957H68.2949V85H73.6201V85.957ZM82.623 92H81.5156V85H82.623V92ZM74.9668 92V85H76.0879V87.6865H77.9746C78.6901 87.6865 79.2575 87.8734 79.6768 88.2471C80.1006 88.6208 80.3125 89.1426 80.3125 89.8125C80.3125 90.487 80.1006 91.0202 79.6768 91.4121C79.2529 91.804 78.7174 92 78.0703 92H74.9668ZM76.0879 88.6504V91.043H77.7695C78.6992 91.043 79.1641 90.6328 79.1641 89.8125C79.1641 89.0378 78.6947 88.6504 77.7559 88.6504H76.0879Z" fill="white"/>
<path d="M65.9943 30.8572C70.6845 32.1426 75.644 35.2538 76.2781 35.7892C78.6576 37.7982 78.2611 43.0218 78.2611 43.0218C78.2611 43.0218 74.793 45.4299 62.4479 45.4246C62.3343 45.4299 61.3726 45.4299 61.2589 45.4246C58.2961 45.4246 55.7854 45.252 53.6975 44.9993M47.4287 35.7892C48.0542 35.2611 52.8877 32.2271 57.5204 30.9108" stroke="white" stroke-width="2" stroke-linejoin="round"/>
<path d="M69.5764 32.217L66.2468 37.8715L61.9682 35.9656L57.4816 37.8715L54.301 32.217" stroke="white" stroke-width="2"/>
<path d="M69.7694 17.0115C69.8111 17.8858 69.7773 18.7273 69.7104 19.4737C69.8943 19.5181 70.0517 19.6059 70.1731 19.707C70.773 20.2062 71.024 21.575 70.4749 23.2651C69.9652 24.8337 69.2884 26.0296 68.2687 26.2767C67.2446 29.2144 65.2508 32.7323 61.5745 32.7323C57.9087 32.7323 55.9158 29.2344 54.8891 26.3019C53.7993 26.1253 53.0883 24.8968 52.5581 23.2651C52.009 21.575 52.26 20.2062 52.8599 19.707C53.0057 19.5856 53.4288 19.2855 53.8574 19.2855" stroke="white" stroke-width="2"/>
<path fill-rule="evenodd" clip-rule="evenodd" d="M68.6336 18.7615C68.6336 18.7615 69.8248 17.0426 69.8509 16.9197C70.0431 16.0151 70.5683 13.0951 69.8509 11.6932C69.0361 10.1009 67.3161 11.8572 67.8684 10.1216C68.4208 8.38598 66.3383 7.6341 63.5358 7.11784C60.8557 6.62415 57.0723 7.80978 54.825 8.9874C52.5777 10.165 52.0908 12.6732 52.4507 14.6109C52.8106 16.5487 53.9852 18.7615 53.9852 18.7615L55.3381 14.166C55.3381 14.166 58.606 14.6109 61.2845 14.6109C63.963 14.6109 67.2222 13.9277 67.2222 13.9277L68.6336 18.7615Z" stroke="white" stroke-width="2"/>
<path d="M29.0715 31.4792C29.0715 32.3341 28.8313 33.2736 28.6586 34.2474C28.1377 37.1857 25.6216 41.3852 25.6216 41.3852" stroke="white" stroke-width="2" stroke-linecap="round"/>
<path d="M46.1216 31.5024C46.2841 32.3573 46.4533 33.2738 46.626 34.2476C47.1469 37.1859 49.7861 41.3022 49.7861 41.3022" stroke="white" stroke-width="2" stroke-linecap="round"/>
<path d="M41.3019 37.7083C46.063 38.8758 51.2872 42.1423 51.9345 42.6879C54.2775 44.6628 53.887 49.7976 53.887 49.7976C53.887 49.7976 50.4721 52.1649 38.3164 52.1596C38.2046 52.1649 37.2576 52.1649 37.1457 52.1596C26.2612 52.1596 21.5752 49.7976 21.5752 49.7976C21.5752 49.7976 21.1847 44.6628 23.5277 42.6879C24.16 42.1549 29.1606 39.0251 33.8301 37.7924" stroke="white" stroke-width="2" stroke-linejoin="round"/>
<path d="M46.7433 27.8063C46.8306 28.4371 46.7628 29.2355 46.4746 30.1223C45.9255 31.8124 45.1823 33.0699 44.0252 33.174C43.9784 33.1782 43.9315 33.1825 43.8847 33.1867C42.642 36.1136 40.5416 39.5896 37.5743 39.5896C34.6104 39.5896 32.5114 36.1217 31.2682 33.197C31.1816 33.19 31.0942 33.1818 31.0073 33.174C29.8502 33.0699 29.107 31.8124 28.5578 30.1223C28.0087 28.4323 28.2598 27.0635 28.8596 26.5642" stroke="white" stroke-width="2"/>
<path d="M44.5855 29.3177C44.5855 29.3177 46.433 28.6633 46.8177 27.743C47.6052 25.8594 47.6048 25.6443 47.6021 24.2422L47.6017 23.9687C47.6017 20.9743 44.371 15.0131 39.22 14.5397C37.1636 14.3507 36.0789 14.676 35.5179 15.357C30.3761 15.8371 27.6084 20.1199 27.6084 23.1116C27.6084 26.1059 30.472 28.8019 30.472 28.8019C30.472 28.8019 30.5917 25.8951 32.2373 23.7105C32.6254 23.1952 33.2425 22.6428 33.8685 22.0825C34.3045 21.6922 34.7449 21.2981 35.1151 20.91C35.6007 22.3304 37.7758 23.2519 39.9191 24.16C42.2714 25.1567 44.5855 26.1371 44.5855 27.743V29.3177Z" stroke="white" stroke-width="2"/>
<path d="M31.1428 38.5715C31.1428 38.5715 34.8539 46.2858 37.5714 46.2858C40.2889 46.2858 44 38.5715 44 38.5715" stroke="white" stroke-width="2"/>
</svg>
