<svg width="102" height="72" viewBox="0 0 102 72" fill="none" xmlns="http://www.w3.org/2000/svg">
<path d="M23.8887 68H22.7402V63.5293H17.668V68H16.5195V58.1973H17.668V62.4971H22.7402V58.1973H23.8887V68ZM31.3193 68H30.1982V66.9062H30.1709C29.6833 67.7448 28.9655 68.1641 28.0176 68.1641C27.3203 68.1641 26.7734 67.9795 26.377 67.6104C25.985 67.2412 25.7891 66.7513 25.7891 66.1406C25.7891 64.8327 26.5592 64.0716 28.0996 63.8574L30.1982 63.5635C30.1982 62.374 29.7174 61.7793 28.7559 61.7793C27.9128 61.7793 27.1517 62.0664 26.4727 62.6406V61.4922C27.1608 61.0547 27.9538 60.8359 28.8516 60.8359C30.4967 60.8359 31.3193 61.7064 31.3193 63.4473V68ZM30.1982 64.459L28.5098 64.6914C27.9902 64.7643 27.5983 64.8942 27.334 65.0811C27.0697 65.2633 26.9375 65.5892 26.9375 66.0586C26.9375 66.4004 27.0583 66.6807 27.2998 66.8994C27.5459 67.1136 27.8717 67.2207 28.2773 67.2207C28.8333 67.2207 29.2913 67.027 29.6514 66.6396C30.016 66.2477 30.1982 65.7533 30.1982 65.1562V64.459ZM39.2422 68H37.6699L34.5801 64.6367H34.5527V68H33.4316V61H34.5527V64.2061H34.5801L37.5195 61H38.9893L35.7422 64.377L39.2422 68ZM45.4971 68H44.3828V61.9502H42.7559C42.569 64.2152 42.2477 65.8057 41.792 66.7217C41.3408 67.6377 40.7324 68.0957 39.9668 68.0957C39.7344 68.0957 39.5339 68.0638 39.3652 68V67.0361C39.5247 67.1182 39.6979 67.1592 39.8848 67.1592C40.8874 67.1592 41.5322 65.1061 41.8193 61H45.4971V68ZM52.7842 68H51.6631V66.9062H51.6357C51.1481 67.7448 50.4303 68.1641 49.4824 68.1641C48.7852 68.1641 48.2383 67.9795 47.8418 67.6104C47.4499 67.2412 47.2539 66.7513 47.2539 66.1406C47.2539 64.8327 48.0241 64.0716 49.5645 63.8574L51.6631 63.5635C51.6631 62.374 51.1823 61.7793 50.2207 61.7793C49.3776 61.7793 48.6165 62.0664 47.9375 62.6406V61.4922C48.6257 61.0547 49.4186 60.8359 50.3164 60.8359C51.9616 60.8359 52.7842 61.7064 52.7842 63.4473V68ZM51.6631 64.459L49.9746 64.6914C49.4551 64.7643 49.0632 64.8942 48.7988 65.0811C48.5345 65.2633 48.4023 65.5892 48.4023 66.0586C48.4023 66.4004 48.5231 66.6807 48.7646 66.8994C49.0107 67.1136 49.3366 67.2207 49.7422 67.2207C50.2982 67.2207 50.7562 67.027 51.1162 66.6396C51.4808 66.2477 51.6631 65.7533 51.6631 65.1562V64.459ZM61.001 70.5498H60.0508V68H54.8418V70.5498H53.8848V67.0498H54.5068C55.7008 65.3271 56.307 63.3105 56.3252 61H59.9619V67.0498H61.001V70.5498ZM58.8408 67.0498V61.9502H57.2891C57.166 63.8369 56.6351 65.5368 55.6963 67.0498H58.8408ZM68.3633 68H67.2422V64.8213H63.6738V68H62.5527V61H63.6738V63.8711H67.2422V61H68.3633V68ZM78.2891 68H77.1816V61H78.2891V68ZM70.6328 68V61H71.7539V63.6865H73.6406C74.3561 63.6865 74.9235 63.8734 75.3428 64.2471C75.7666 64.6208 75.9785 65.1426 75.9785 65.8125C75.9785 66.487 75.7666 67.0202 75.3428 67.4121C74.9189 67.804 74.3835 68 73.7363 68H70.6328ZM71.7539 64.6504V67.043H73.4355C74.3652 67.043 74.8301 66.6328 74.8301 65.8125C74.8301 65.0378 74.3607 64.6504 73.4219 64.6504H71.7539ZM86.1982 64.7803H81.2559C81.2741 65.5596 81.4837 66.1611 81.8848 66.585C82.2858 67.0088 82.8372 67.2207 83.5391 67.2207C84.3275 67.2207 85.0521 66.9609 85.7129 66.4414V67.4941C85.0977 67.9408 84.2842 68.1641 83.2725 68.1641C82.2835 68.1641 81.5065 67.8473 80.9414 67.2139C80.3763 66.5758 80.0938 65.6803 80.0938 64.5273C80.0938 63.4382 80.4014 62.5518 81.0166 61.8682C81.6364 61.18 82.4043 60.8359 83.3203 60.8359C84.2363 60.8359 84.945 61.1322 85.4463 61.7246C85.9476 62.3171 86.1982 63.1396 86.1982 64.1924V64.7803ZM85.0498 63.8301C85.0452 63.1829 84.888 62.6794 84.5781 62.3193C84.2728 61.9593 83.8467 61.7793 83.2998 61.7793C82.7712 61.7793 82.3223 61.9684 81.9531 62.3467C81.584 62.7249 81.3561 63.2194 81.2695 63.8301H85.0498Z" fill="white"/>
<path fill-rule="evenodd" clip-rule="evenodd" d="M45 33H57V31H45V33ZM65.9375 6H58.7188V5C58.7188 3.9 57.7906 3 56.6562 3H54.5938C54.5938 1.3 53.2531 0 51.5 0C49.7469 0 48.4062 1.3 48.4062 3H46.3438C45.2094 3 44.2812 3.9 44.2812 5V6H37.0625C35.9281 6 35 6.9 35 8V44C35 45.1 35.9281 46 37.0625 46H65.9375C67.0719 46 68 45.1 68 44V8C68 6.9 67.0719 6 65.9375 6ZM50 4H53V7H50V4ZM66 44H37V8H44.25C44.25 9.1 45.1821 10 46.3214 10H56.6786C57.8179 10 58.75 9.1 58.75 8H66V44ZM45 27H57V25H45V27ZM45 21H57V19H45V21Z" fill="white"/>
</svg>
