<svg width="72" height="74" viewBox="0 0 72 74" fill="none" xmlns="http://www.w3.org/2000/svg">
<path d="M16.9824 61.2637H13.0518V70H11.8965V60.1973H16.9824V61.2637ZM23.4561 70H22.3418V63.9502H20.7148C20.528 66.2152 20.2067 67.8057 19.751 68.7217C19.2998 69.6377 18.6914 70.0957 17.9258 70.0957C17.6934 70.0957 17.4928 70.0638 17.3242 70V69.0361C17.4837 69.1182 17.6569 69.1592 17.8438 69.1592C18.8464 69.1592 19.4912 67.1061 19.7783 63H23.4561V70ZM30.7432 70H29.6221V68.9062H29.5947C29.1071 69.7448 28.3893 70.1641 27.4414 70.1641C26.7441 70.1641 26.1973 69.9795 25.8008 69.6104C25.4089 69.2412 25.2129 68.7513 25.2129 68.1406C25.2129 66.8327 25.9831 66.0716 27.5234 65.8574L29.6221 65.5635C29.6221 64.374 29.1413 63.7793 28.1797 63.7793C27.3366 63.7793 26.5755 64.0664 25.8965 64.6406V63.4922C26.5846 63.0547 27.3776 62.8359 28.2754 62.8359C29.9206 62.8359 30.7432 63.7064 30.7432 65.4473V70ZM29.6221 66.459L27.9336 66.6914C27.4141 66.7643 27.0221 66.8942 26.7578 67.0811C26.4935 67.2633 26.3613 67.5892 26.3613 68.0586C26.3613 68.4004 26.4821 68.6807 26.7236 68.8994C26.9697 69.1136 27.2956 69.2207 27.7012 69.2207C28.2572 69.2207 28.7152 69.027 29.0752 68.6396C29.4398 68.2477 29.6221 67.7533 29.6221 67.1562V66.459ZM32.8555 70V63H35.9043C36.5924 63 37.1348 63.1527 37.5312 63.458C37.9323 63.7633 38.1328 64.1803 38.1328 64.709C38.1328 65.6159 37.6862 66.1673 36.793 66.3633C37.8639 66.5 38.3994 67.04 38.3994 67.9834C38.3994 68.5531 38.1784 69.0316 37.7363 69.4189C37.2988 69.8063 36.7542 70 36.1025 70H32.8555ZM33.9766 63.957V65.9258H35.6582C36.5605 65.9258 37.0117 65.5749 37.0117 64.873C37.0117 64.2624 36.6061 63.957 35.7949 63.957H33.9766ZM33.9766 66.8828V69.043H35.918C36.8249 69.043 37.2783 68.6761 37.2783 67.9424C37.2783 67.236 36.7702 66.8828 35.7539 66.8828H33.9766ZM46.0898 70H44.9688V66.8213H41.4004V70H40.2793V63H41.4004V65.8711H44.9688V63H46.0898V70ZM53.3701 70H52.249V68.9062H52.2217C51.734 69.7448 51.0163 70.1641 50.0684 70.1641C49.3711 70.1641 48.8242 69.9795 48.4277 69.6104C48.0358 69.2412 47.8398 68.7513 47.8398 68.1406C47.8398 66.8327 48.61 66.0716 50.1504 65.8574L52.249 65.5635C52.249 64.374 51.7682 63.7793 50.8066 63.7793C49.9635 63.7793 49.2025 64.0664 48.5234 64.6406V63.4922C49.2116 63.0547 50.0046 62.8359 50.9023 62.8359C52.5475 62.8359 53.3701 63.7064 53.3701 65.4473V70ZM52.249 66.459L50.5605 66.6914C50.041 66.7643 49.6491 66.8942 49.3848 67.0811C49.1204 67.2633 48.9883 67.5892 48.9883 68.0586C48.9883 68.4004 49.109 68.6807 49.3506 68.8994C49.5967 69.1136 49.9225 69.2207 50.3281 69.2207C50.8841 69.2207 51.3421 69.027 51.7021 68.6396C52.0667 68.2477 52.249 67.7533 52.249 67.1562V66.459ZM60.2676 70H59.1465V67.1016H58.21C57.7588 67.1016 57.3486 67.4661 56.9795 68.1953L56.0703 70H54.7715L55.9473 67.8398C56.2207 67.3385 56.5511 67.0081 56.9385 66.8486C56.3916 66.7757 55.9746 66.5752 55.6875 66.2471C55.4004 65.9189 55.2568 65.5088 55.2568 65.0166C55.2568 64.3968 55.4801 63.9069 55.9268 63.5469C56.3779 63.1823 57.0091 63 57.8203 63H60.2676V70ZM59.1465 66.165V63.957H57.8203C56.877 63.957 56.4053 64.3148 56.4053 65.0303C56.4053 65.7868 56.8633 66.165 57.7793 66.165H59.1465Z" fill="white"/>
<path d="M53.7858 27.5V40.0714H19.2144V27.5" stroke="white" stroke-width="2"/>
<rect x="12.9287" y="45.5715" width="47.1429" height="4.71428" stroke="white" stroke-width="2"/>
<path d="M57.7142 27.5V45.5714H15.2856V27.5" stroke="white" stroke-width="2"/>
<rect x="19.2144" y="34.5715" width="12.5714" height="5.5" stroke="white" stroke-width="2"/>
<path d="M21.4143 24.3572V25.1503C21.4143 26.448 20.357 27.5001 19.0564 27.5001H13.7151C12.4129 27.5001 11.3572 26.448 11.3572 25.1416V21.2144" stroke="white" stroke-width="2"/>
<path d="M31.4714 24.3572V25.1389C31.4714 26.4429 30.4142 27.5 29.1135 27.5H23.7723C22.47 27.5 21.4143 26.4405 21.4143 25.1444V24.3572" stroke="white" stroke-width="2"/>
<path d="M41.5286 24.3572V25.1457C41.5286 26.4459 40.4713 27.5 39.1706 27.5H33.8294C32.5271 27.5 31.4714 26.4409 31.4714 25.1454V24.3572" stroke="white" stroke-width="2"/>
<path d="M51.5857 24.3572V25.1418C51.5857 26.4442 50.5284 27.5 49.2278 27.5H43.8865C42.5843 27.5 41.5286 26.4508 41.5286 25.1442V24.3572" stroke="white" stroke-width="2"/>
<path d="M61.6428 21.2144V25.1416C61.6428 26.4442 60.5856 27.5001 59.2849 27.5001H53.9436C52.6414 27.5001 51.5857 26.4371 51.5857 25.1433V24.3572" stroke="white" stroke-width="2"/>
<path fill-rule="evenodd" clip-rule="evenodd" d="M56.0241 7.85718L61.6429 21.2143H11.3572L16.976 7.85718H56.0241Z" stroke="white" stroke-width="2" stroke-linejoin="round"/>
<path d="M21.5715 21.2143L24.3215 7.85718" stroke="white" stroke-width="2"/>
<path d="M31.3928 21.2143L32.5714 7.85718" stroke="white" stroke-width="2"/>
<path d="M41.6072 21.2143L40.4286 7.85718" stroke="white" stroke-width="2"/>
<path d="M51.4287 21.2143L48.6787 7.85718" stroke="white" stroke-width="2"/>
</svg>
