<svg width="102" height="79" viewBox="0 0 102 79" fill="none" xmlns="http://www.w3.org/2000/svg">
<path d="M33.9512 47.2363H31.1211V56H29.9727V47.2363H27.1494V46.1973H33.9512V47.2363ZM38.2715 56.1641C37.237 56.1641 36.4098 55.8382 35.79 55.1865C35.1748 54.5303 34.8672 53.6621 34.8672 52.582C34.8672 51.4062 35.1885 50.488 35.8311 49.8271C36.4736 49.1663 37.3418 48.8359 38.4355 48.8359C39.4792 48.8359 40.2926 49.1572 40.876 49.7998C41.4639 50.4424 41.7578 51.3333 41.7578 52.4727C41.7578 53.5892 41.4411 54.4847 40.8076 55.1592C40.1787 55.8291 39.3333 56.1641 38.2715 56.1641ZM38.3535 49.7793C37.6335 49.7793 37.0638 50.0254 36.6445 50.5176C36.2253 51.0052 36.0156 51.6797 36.0156 52.541C36.0156 53.3704 36.2275 54.0244 36.6514 54.5029C37.0752 54.9814 37.6426 55.2207 38.3535 55.2207C39.0781 55.2207 39.6341 54.986 40.0215 54.5166C40.4134 54.0472 40.6094 53.3796 40.6094 52.5137C40.6094 51.6387 40.4134 50.9642 40.0215 50.4902C39.6341 50.0163 39.0781 49.7793 38.3535 49.7793ZM43.5488 56V49H46.5977C47.2858 49 47.8281 49.1527 48.2246 49.458C48.6257 49.7633 48.8262 50.1803 48.8262 50.709C48.8262 51.6159 48.3796 52.1673 47.4863 52.3633C48.5573 52.5 49.0928 53.04 49.0928 53.9834C49.0928 54.5531 48.8717 55.0316 48.4297 55.4189C47.9922 55.8063 47.4476 56 46.7959 56H43.5488ZM44.6699 49.957V51.9258H46.3516C47.2539 51.9258 47.7051 51.5749 47.7051 50.873C47.7051 50.2624 47.2995 49.957 46.4883 49.957H44.6699ZM44.6699 52.8828V55.043H46.6113C47.5182 55.043 47.9717 54.6761 47.9717 53.9424C47.9717 53.236 47.4635 52.8828 46.4473 52.8828H44.6699ZM55.9834 56H54.8623V54.9062H54.835C54.3473 55.7448 53.6296 56.1641 52.6816 56.1641C51.9844 56.1641 51.4375 55.9795 51.041 55.6104C50.6491 55.2412 50.4531 54.7513 50.4531 54.1406C50.4531 52.8327 51.2233 52.0716 52.7637 51.8574L54.8623 51.5635C54.8623 50.374 54.3815 49.7793 53.4199 49.7793C52.5768 49.7793 51.8158 50.0664 51.1367 50.6406V49.4922C51.8249 49.0547 52.6178 48.8359 53.5156 48.8359C55.1608 48.8359 55.9834 49.7064 55.9834 51.4473V56ZM54.8623 52.459L53.1738 52.6914C52.6543 52.7643 52.2624 52.8942 51.998 53.0811C51.7337 53.2633 51.6016 53.5892 51.6016 54.0586C51.6016 54.4004 51.7223 54.6807 51.9639 54.8994C52.21 55.1136 52.5358 55.2207 52.9414 55.2207C53.4974 55.2207 53.9554 55.027 54.3154 54.6396C54.68 54.2477 54.8623 53.7533 54.8623 53.1562V52.459ZM59.2441 54.9883H59.2168V59.2197H58.0957V49H59.2168V50.2305H59.2441C59.7956 49.3008 60.6022 48.8359 61.6641 48.8359C62.5664 48.8359 63.2705 49.1504 63.7764 49.7793C64.2822 50.4036 64.5352 51.2422 64.5352 52.2949C64.5352 53.4661 64.2503 54.4049 63.6807 55.1113C63.111 55.8132 62.3317 56.1641 61.3428 56.1641C60.4359 56.1641 59.7363 55.7721 59.2441 54.9883ZM59.2168 52.165V53.1426C59.2168 53.7214 59.4036 54.2135 59.7773 54.6191C60.1556 55.0202 60.6341 55.2207 61.2129 55.2207C61.8919 55.2207 62.4229 54.9609 62.8057 54.4414C63.193 53.9219 63.3867 53.1995 63.3867 52.2744C63.3867 51.4951 63.2067 50.8844 62.8467 50.4424C62.4867 50.0003 61.999 49.7793 61.3838 49.7793C60.7321 49.7793 60.208 50.0072 59.8115 50.4629C59.415 50.9141 59.2168 51.4814 59.2168 52.165ZM73.9824 56H72.875V49H73.9824V56ZM66.3262 56V49H67.4473V51.6865H69.334C70.0495 51.6865 70.6169 51.8734 71.0361 52.2471C71.46 52.6208 71.6719 53.1426 71.6719 53.8125C71.6719 54.487 71.46 55.0202 71.0361 55.4121C70.6123 55.804 70.0768 56 69.4297 56H66.3262ZM67.4473 52.6504V55.043H69.1289C70.0586 55.043 70.5234 54.6328 70.5234 53.8125C70.5234 53.0378 70.054 52.6504 69.1152 52.6504H67.4473ZM31.5586 75H30.5469V69.415C30.4466 69.611 30.2939 69.8867 30.0889 70.2422L26.8555 75H25.6934V68H26.7188V73.5166C26.7734 73.3844 26.8919 73.1589 27.0742 72.8398L30.3965 68H31.5586V75ZM43.2412 68L40.0215 76.1211C39.4473 77.5703 38.6406 78.2949 37.6016 78.2949C37.3099 78.2949 37.0661 78.2653 36.8701 78.2061V77.2012C37.1117 77.2832 37.3327 77.3242 37.5332 77.3242C38.0983 77.3242 38.5221 76.987 38.8047 76.3125L39.3652 74.9863L36.6309 68H37.875L39.7686 73.3867C39.7913 73.4551 39.8392 73.6328 39.9121 73.9199H39.9531C39.9759 73.8105 40.0215 73.6374 40.0898 73.4004L42.0791 68H43.2412ZM49.2227 74.6787C48.6849 75.0023 48.0469 75.1641 47.3086 75.1641C46.3105 75.1641 45.5039 74.8405 44.8887 74.1934C44.278 73.5417 43.9727 72.6986 43.9727 71.6641C43.9727 70.5111 44.3031 69.5859 44.9639 68.8887C45.6247 68.1868 46.5065 67.8359 47.6094 67.8359C48.2246 67.8359 48.7669 67.9499 49.2363 68.1777V69.3262C48.7168 68.9616 48.1608 68.7793 47.5684 68.7793C46.8529 68.7793 46.265 69.0368 45.8047 69.5518C45.349 70.0622 45.1211 70.7344 45.1211 71.5684C45.1211 72.3887 45.3353 73.0358 45.7637 73.5098C46.1966 73.9837 46.7754 74.2207 47.5 74.2207C48.1107 74.2207 48.6849 74.0179 49.2227 73.6123V74.6787ZM56.0244 75H54.9102V68.9502H53.2832C53.0964 71.2152 52.7751 72.8057 52.3193 73.7217C51.8682 74.6377 51.2598 75.0957 50.4941 75.0957C50.2617 75.0957 50.0612 75.0638 49.8926 75V74.0361C50.0521 74.1182 50.2253 74.1592 50.4121 74.1592C51.4147 74.1592 52.0596 72.1061 52.3467 68H56.0244V75ZM63.8721 68L60.6523 76.1211C60.0781 77.5703 59.2715 78.2949 58.2324 78.2949C57.9408 78.2949 57.6969 78.2653 57.501 78.2061V77.2012C57.7425 77.2832 57.9635 77.3242 58.1641 77.3242C58.7292 77.3242 59.153 76.987 59.4355 76.3125L59.9961 74.9863L57.2617 68H58.5059L60.3994 73.3867C60.4222 73.4551 60.4701 73.6328 60.543 73.9199H60.584C60.6068 73.8105 60.6523 73.6374 60.7207 73.4004L62.71 68H63.8721ZM68.9717 68.957H66.2031V75H65.082V68H68.9717V68.957ZM76.3066 75H75.2949V69.415C75.1947 69.611 75.042 69.8867 74.8369 70.2422L71.6035 75H70.4414V68H71.4668V73.5166C71.5215 73.3844 71.64 73.1589 71.8223 72.8398L75.1445 68H76.3066V75Z" fill="white"/>
<path fill-rule="evenodd" clip-rule="evenodd" d="M64 0H62H40H38L32.3 8.24242C32.1 8.55151 32 8.86061 32 9.27273V31.9394C32 33.0727 32.9 34 34 34H68C69.1 34 70 33.0727 70 31.9394V9.27273C70 8.86061 69.9 8.55151 69.7 8.24242L64 0ZM63.2 2L67 7H55.7L54 2H63.2ZM38.7287 2H48L46.2868 7H35L38.7287 2ZM68 32H34V9H46V14.2273H56V9H68V32Z" fill="white"/>
</svg>
