<svg width="102" height="64" viewBox="0 0 102 64" fill="none" xmlns="http://www.w3.org/2000/svg">
<path d="M32.625 60.1641C31.235 60.1641 30.1208 59.7061 29.2822 58.79C28.4482 57.874 28.0312 56.6823 28.0312 55.2148C28.0312 53.638 28.4574 52.3802 29.3096 51.4414C30.1618 50.5026 31.3216 50.0332 32.7891 50.0332C34.1426 50.0332 35.2318 50.4889 36.0566 51.4004C36.8861 52.3118 37.3008 53.5036 37.3008 54.9756C37.3008 56.5752 36.877 57.8398 36.0293 58.7695C35.1816 59.6992 34.0469 60.1641 32.625 60.1641ZM32.707 51.0723C31.6771 51.0723 30.8408 51.4437 30.1982 52.1865C29.5557 52.9294 29.2344 53.9046 29.2344 55.1123C29.2344 56.32 29.5465 57.293 30.1709 58.0312C30.7998 58.765 31.6178 59.1318 32.625 59.1318C33.7005 59.1318 34.5482 58.7809 35.168 58.0791C35.7878 57.3773 36.0977 56.3952 36.0977 55.1328C36.0977 53.8385 35.7969 52.8382 35.1953 52.1318C34.5938 51.4255 33.7643 51.0723 32.707 51.0723ZM43.4736 53.957H41.375V60H40.2539V53.957H38.1484V53H43.4736V53.957ZM50.46 60H49.3457V57.1836C48.5254 57.6302 47.7689 57.8535 47.0762 57.8535C45.5085 57.8535 44.7246 57.0241 44.7246 55.3652V53H45.8457V55.3105C45.8457 56.3359 46.2878 56.8486 47.1719 56.8486C47.8464 56.8486 48.571 56.6527 49.3457 56.2607V53H50.46V60ZM58.3623 56.7803H53.4199C53.4382 57.5596 53.6478 58.1611 54.0488 58.585C54.4499 59.0088 55.0013 59.2207 55.7031 59.2207C56.4915 59.2207 57.2161 58.9609 57.877 58.4414V59.4941C57.2617 59.9408 56.4482 60.1641 55.4365 60.1641C54.4476 60.1641 53.6706 59.8473 53.1055 59.2139C52.5404 58.5758 52.2578 57.6803 52.2578 56.5273C52.2578 55.4382 52.5654 54.5518 53.1807 53.8682C53.8005 53.18 54.5684 52.8359 55.4844 52.8359C56.4004 52.8359 57.109 53.1322 57.6104 53.7246C58.1117 54.3171 58.3623 55.1396 58.3623 56.1924V56.7803ZM57.2139 55.8301C57.2093 55.1829 57.0521 54.6794 56.7422 54.3193C56.4368 53.9593 56.0107 53.7793 55.4639 53.7793C54.9352 53.7793 54.4863 53.9684 54.1172 54.3467C53.748 54.7249 53.5202 55.2194 53.4336 55.8301H57.2139ZM64.46 53.957H62.3613V60H61.2402V53.957H59.1348V53H64.46V53.957ZM73.4629 60H72.3555V53H73.4629V60ZM65.8066 60V53H66.9277V55.6865H68.8145C69.5299 55.6865 70.0973 55.8734 70.5166 56.2471C70.9404 56.6208 71.1523 57.1426 71.1523 57.8125C71.1523 58.487 70.9404 59.0202 70.5166 59.4121C70.0928 59.804 69.5573 60 68.9102 60H65.8066ZM66.9277 56.6504V59.043H68.6094C69.5391 59.043 70.0039 58.6328 70.0039 57.8125C70.0039 57.0378 69.5345 56.6504 68.5957 56.6504H66.9277Z" fill="white"/>
<path fill-rule="evenodd" clip-rule="evenodd" d="M44 31H38V20H44V31ZM54 13H48V31H54V13ZM64 6H58V31H64V6ZM76 35L72 32V34H30.3C30.1 34 30 33.9 30 33.7V4H32L29 0L26 4H28V33.7C28 35 29 36 30.3 36H72V38L76 35Z" fill="white"/>
</svg>
