<svg width="77" height="77" viewBox="0 0 77 77" fill="none" xmlns="http://www.w3.org/2000/svg">
<path fill-rule="evenodd" clip-rule="evenodd" d="M38.5 76C59.2107 76 76 59.2107 76 38.5C76 17.7893 59.2107 1 38.5 1C17.7893 1 1 17.7893 1 38.5C1 59.2107 17.7893 76 38.5 76Z" fill="white" stroke="#EB3685" stroke-width="2"/>
<path d="M24.5951 35.6902C24.5951 37.0672 24.2026 38.5805 23.9206 40.1492C23.0694 44.8823 18.9585 51.6469 18.9585 51.6469" stroke="#EB3685" stroke-width="2" stroke-linecap="round"/>
<path d="M52.4525 35.7272C52.7179 37.1043 52.9944 38.5805 53.2765 40.1492C54.1276 44.8823 58.4397 51.5131 58.4397 51.5131" stroke="#EB3685" stroke-width="2" stroke-linecap="round"/>
<path d="M44.5776 45.724C52.3566 47.6047 60.8922 52.8666 61.9497 53.7455C65.7778 56.9268 65.1398 65.1981 65.1398 65.1981M12.3472 65.1981C12.3472 65.1981 11.7092 56.9268 15.5373 53.7455C16.5705 52.8869 24.7406 47.8452 32.3699 45.8595" stroke="#EB3685" stroke-width="2" stroke-linejoin="round"/>
<path d="M53.4683 29.7737C53.611 30.7897 53.5002 32.0758 53.0294 33.5044C52.1321 36.2268 50.9179 38.2524 49.0273 38.4201C48.9509 38.4269 48.8743 38.4339 48.7977 38.4406C46.7675 43.1552 43.3357 48.7546 38.4875 48.7546C33.6449 48.7546 30.2155 43.1683 28.1844 38.4571C28.0428 38.446 27.9001 38.4327 27.758 38.4201C25.8675 38.2524 24.6532 36.2268 23.756 33.5044C22.8588 30.782 23.269 28.577 24.2491 27.7728" stroke="#EB3685" stroke-width="2"/>
<path d="M49.9426 32.2081C49.9426 32.2081 52.961 31.154 53.5897 29.6714C54.8763 26.6373 54.8757 26.2907 54.8712 24.0322L54.8707 23.5917C54.8707 18.7682 49.5921 9.1657 41.1762 8.40312C37.8163 8.09868 36.0442 8.62261 35.1275 9.71965C26.7267 10.493 22.2046 17.392 22.2046 22.211C22.2046 27.0345 26.8832 31.3771 26.8832 31.3771C26.8832 31.3771 27.0788 26.6949 29.7675 23.1757C30.4016 22.3457 31.4098 21.4561 32.4324 20.5536C33.1449 19.925 33.8645 19.29 34.4694 18.6647C35.2629 20.9527 38.8166 22.4372 42.3183 23.8998C46.1618 25.5053 49.9426 27.0846 49.9426 29.6714V32.2081Z" stroke="#EB3685" stroke-width="2"/>
<path d="M27.9795 47.1144C27.9795 47.1144 34.0428 59.5409 38.4828 59.5409C42.9228 59.5409 48.9861 47.1144 48.9861 47.1144" stroke="#EB3685" stroke-width="2"/>
</svg>
