<svg width="77" height="77" viewBox="0 0 77 77" fill="none" xmlns="http://www.w3.org/2000/svg">
<path fill-rule="evenodd" clip-rule="evenodd" d="M38.5 76C59.2107 76 76 59.2107 76 38.5C76 17.7893 59.2107 1 38.5 1C17.7893 1 1 17.7893 1 38.5C1 59.2107 17.7893 76 38.5 76Z" fill="white" stroke="#31ADD7" stroke-width="2"/>
<path d="M45.2626 46C52.8165 48.0146 60.804 52.8903 61.8253 53.7294C65.6576 56.878 65.0188 65.0644 65.0188 65.0644M12.1683 65.0644C12.1683 65.0644 11.5296 56.878 15.3619 53.7294C16.3693 52.9018 24.1539 48.1469 31.615 46.0841" stroke="#31ADD7" stroke-width="2" stroke-linejoin="round"/>
<path d="M51.1783 48.5L45.9155 57.4054L39.1462 54.4324L32.0479 57.4054L26.8354 48.5" stroke="#31ADD7" stroke-width="2"/>
<path d="M50.6713 28.5C50.9623 28.5692 51.935 28.914 52.1271 29.0717C53.0762 29.8504 53.4734 31.9856 52.6046 34.6218C51.7983 37.0685 50.7275 38.934 49.1141 39.3194C47.494 43.9017 44.3395 49.3891 38.5232 49.3891C32.7234 49.3891 29.5704 43.933 27.9461 39.3587C26.2219 39.0833 25.0969 37.167 24.2581 34.6218C23.3893 31.9856 23.7865 29.8504 24.7356 29.0717C24.9663 28.8823 25.3141 28.5 26.8356 28.5" stroke="#31ADD7" stroke-width="2"/>
<path fill-rule="evenodd" clip-rule="evenodd" d="M50.6711 27.5968C50.6711 27.5968 51.576 24.9156 51.6173 24.724C51.9213 23.3129 52.7523 18.7581 51.6173 16.5714C50.3282 14.0877 47.6069 16.8273 48.4808 14.12C49.3546 11.4127 46.0598 10.2399 41.6259 9.43462C37.3857 8.66453 31.4 10.5139 27.8445 12.3508C24.2891 14.1877 23.5186 18.1 24.088 21.1226C24.6574 24.1452 26.5158 27.5968 26.5158 27.5968L28.6563 20.4287C28.6563 20.4287 33.8265 21.1226 38.0642 21.1226C42.3019 21.1226 47.6283 20.4287 47.6283 20.4287L50.6711 27.5968Z" stroke="#31ADD7" stroke-width="2"/>
</svg>
