<svg width="140" height="123" viewBox="0 0 140 123" fill="none" xmlns="http://www.w3.org/2000/svg">
<path d="M57.3163 109.655H8.49236C7.11842 109.655 6.00462 108.542 6.00462 107.171L6 52.4848C6 51.1125 7.11901 50 8.47655 50H78.0923C79.46 50 80.5688 51.1136 80.5688 52.4848L80.5735 107.171C80.5735 108.543 79.4624 109.655 78.0924 109.655H62.3949" stroke="#808080" stroke-width="2"/>
<path d="M80.5734 61.2736H6.00195" stroke="#808080" stroke-width="2"/>
<path fill-rule="evenodd" clip-rule="evenodd" d="M11.6125 57.4916C12.6519 57.4916 13.4946 56.649 13.4946 55.6096C13.4946 54.5702 12.6519 53.7275 11.6125 53.7275C10.5731 53.7275 9.73047 54.5702 9.73047 55.6096C9.73047 56.649 10.5731 57.4916 11.6125 57.4916Z" fill="#808080"/>
<path fill-rule="evenodd" clip-rule="evenodd" d="M17.8269 57.4916C18.8663 57.4916 19.7089 56.649 19.7089 55.6096C19.7089 54.5702 18.8663 53.7275 17.8269 53.7275C16.7874 53.7275 15.9448 54.5702 15.9448 55.6096C15.9448 56.649 16.7874 57.4916 17.8269 57.4916Z" fill="#808080"/>
<path fill-rule="evenodd" clip-rule="evenodd" d="M24.0412 57.4916C25.0806 57.4916 25.9233 56.649 25.9233 55.6096C25.9233 54.5702 25.0806 53.7275 24.0412 53.7275C23.0018 53.7275 22.1592 54.5702 22.1592 55.6096C22.1592 56.649 23.0018 57.4916 24.0412 57.4916Z" fill="#808080"/>
<path d="M47 106.716V84L64.1681 97.75L57.1295 99.8208L65 113.461L60.2401 116L52.5603 102.148L47 106.716Z" stroke="#3072C4" stroke-width="2"/>
<g clip-path="url(#clip0)">
<path fill-rule="evenodd" clip-rule="evenodd" d="M95.6321 52.989L87.6403 68.8301C85.9239 72.2324 76.5379 70.9573 66.6761 65.9821C56.8143 61.0069 50.2112 54.2156 51.9277 50.8133L59.9194 34.9722" fill="#F7F7F7"/>
<path d="M95.6321 52.989L87.6403 68.8301C85.9239 72.2324 76.5379 70.9573 66.6761 65.9821C56.8143 61.0069 50.2112 54.2156 51.9277 50.8133L59.9194 34.9722" stroke="#3072C4" stroke-width="2" stroke-linejoin="round"/>
<path d="M54.5918 45.5327C52.8753 48.935 59.4784 55.7264 69.3402 60.7016C79.202 65.6768 88.588 66.9519 90.3044 63.5496" stroke="#3072C4" stroke-width="2" stroke-linejoin="round"/>
<path d="M106.446 52.6224L106.448 69.3796" stroke="#3072C4" stroke-width="2" stroke-linecap="round" stroke-linejoin="round"/>
<path d="M105.297 75.5745L103.075 84.47C103.075 84.47 103.075 85.6441 106.45 85.6437C109.825 85.6432 109.825 84.4692 109.825 84.4692C109.825 84.4692 108.336 78.5163 107.592 75.5399" stroke="#3072C4" stroke-width="2"/>
<path fill-rule="evenodd" clip-rule="evenodd" d="M106.449 75.7874C108.106 75.7872 109.449 74.4631 109.449 72.8299C109.448 71.1967 108.105 69.8729 106.448 69.8732C104.791 69.8734 103.448 71.1975 103.449 72.8307C103.449 74.4639 104.792 75.7877 106.449 75.7874Z" stroke="#3072C4" stroke-width="2"/>
<path fill-rule="evenodd" clip-rule="evenodd" d="M86.5242 30.8598L110.139 54.1046C110.925 54.878 110.673 55.3644 109.59 55.1929L76.8615 50.0129C75.7726 49.8406 74.2489 49.07 73.4673 48.3006L49.8525 25.0557C49.0668 24.2823 49.3182 23.796 50.4015 23.9674L83.1299 29.1474C84.2188 29.3197 85.7425 30.0904 86.5242 30.8598Z" fill="#F7F7F7" stroke="#3072C4" stroke-width="2" stroke-linejoin="round"/>
</g>
<defs>
<clipPath id="clip0">
<rect width="88.3796" height="69" fill="white" transform="translate(60.291 0.933594) rotate(26.7707)"/>
</clipPath>
</defs>
</svg>
